Coordinates
version=1
nRows=27
nColumns=26
inDegrees=yes

Units are S.I. units (second, meters, Newtons, ...)
Angles are in degrees.

endheader
time	pelvis_tilt	pelvis_list	pelvis_rotation	pelvis_tx	pelvis_ty	pelvis_tz	hip_flexion_r	hip_adduction_r	hip_rotation_r	knee_angle_r	knee_angle_r_beta	ankle_angle_r	subtalar_angle_r	mtp_angle_r	hip_flexion_l	hip_adduction_l	hip_rotation_l	knee_angle_l	knee_angle_l_beta	ankle_angle_l	subtalar_angle_l	mtp_angle_l	lumbar_extension	lumbar_bending	lumbar_rotation
    202.06970050	    -19.79911259	     -0.24201401	     -2.60028084	      0.10652506	      1.03939677	      0.29881046	     46.88929797	      3.43037164	     -3.96382157	     22.99065633	     22.99065633	      2.14592716	     -4.13585101	      0.00000000	     -7.24774074	      3.27246826	     -2.57277190	     15.22300158	     15.22300158	    -22.99545142	    -12.25684475	      0.00000000	     10.07878206	      1.68431126	    -11.82010813
    202.07970050	    -19.28971010	      0.36321205	     -3.12781912	      0.10760362	      1.03896617	      0.29983780	     45.44716039	      3.36778937	     -4.93856614	     18.40422392	     18.40422392	      3.71178076	      0.52671117	      0.00000000	     -7.95266563	      4.07282513	     -1.98876337	     17.85627604	     17.85627604	    -20.92675944	    -12.53795178	      0.00000000	      9.51824173	      1.04046225	    -11.33547586
    202.08970050	    -18.93106050	      0.80688051	     -3.73688132	      0.10796578	      1.03772641	      0.30112763	     44.33021934	      3.53686481	     -5.68536714	     14.92173233	     14.92173233	      5.21657976	      4.60103082	      0.00000000	     -8.02793821	      4.65588766	     -1.84262266	     21.20713137	     21.20713137	    -19.60279837	    -12.96073354	      0.00000000	      9.03004821	      0.54588294	    -10.86604395
    202.09970050	    -18.49415469	      1.47469515	     -4.30270125	      0.10751891	      1.03597345	      0.30221148	     43.41455587	      3.58009863	     -5.40236213	     12.74931531	     12.74931531	      6.32280817	      6.46164970	      0.00000000	     -7.81870873	      5.55643877	     -1.30701539	     24.95838425	     24.95838425	    -19.16096450	    -13.73487745	      0.00000000	      8.32979838	     -0.22858084	    -10.23504293
    202.10970050	    -18.15140880	      1.45493612	     -4.72034464	      0.10707317	      1.03338266	      0.30303869	     42.71051195	      3.97311721	     -6.33232651	     11.75352678	     11.75352678	      7.38147940	      8.47302759	      0.00000000	     -7.01418097	      5.56876791	     -1.29267938	     29.62385620	     29.62385620	    -18.33218549	    -13.76356840	      0.00000000	      7.73730341	     -0.13946628	    -10.08746561
    202.11970050	    -17.34693377	      1.79296078	     -5.29129460	      0.10653437	      1.03060051	      0.30332136	     41.74773285	      4.13733478	     -6.36496204	     11.96878800	     11.96878800	      7.89137980	      8.20382560	      0.00000000	     -6.53485822	      6.25344818	     -0.69974008	     34.20590791	     34.20590791	    -18.74373849	    -14.55822771	      0.00000000	      6.55993428	     -0.40875200	     -9.53913143
    202.12970050	    -17.09837807	      2.00636497	     -5.56666131	      0.10541775	      1.02614776	      0.30271982	     41.49264660	      4.22186811	     -6.17269090	     13.12655504	     13.12655504	      7.77906979	      6.54197486	      0.00000000	     -4.86255368	      6.70628498	     -0.09556383	     39.74391191	     39.74391191	    -18.92531242	    -15.01623448	      0.00000000	      6.00666244	     -0.42604104	     -9.53827121
    202.13970050	    -16.18021913	      2.11826593	     -5.99723423	      0.10480975	      1.02158243	      0.30190902	     40.36873820	      4.31262344	     -5.34453694	     14.74161252	     14.74161252	      8.11074928	      5.57005500	      0.00000000	     -3.79815875	      7.10791096	      0.12688653	     45.18770721	     45.18770721	    -19.30171387	    -15.50812376	      0.00000000	      4.69519976	     -0.30337289	     -9.22252231
    202.14970050	    -15.68851630	      1.89599438	     -6.24893984	      0.10344409	      1.01566418	      0.30123628	     39.52392211	      4.70358005	     -3.65637219	     16.51001291	     16.51001291	      7.67135537	      4.08981447	      0.00000000	     -1.91760950	      6.90766123	      0.06751329	     51.14572276	     51.14572276	    -19.07261067	    -15.81176869	      0.00000000	      3.80667213	      0.15374919	     -9.04438802
    202.15970050	    -15.14314343	      1.30506748	     -6.47599023	      0.10189271	      1.00914839	      0.30059457	     38.89776391	      5.24957713	     -3.21592420	     19.25921310	     19.25921310	      5.89524131	      2.97897116	      0.00000000	     -0.04179398	      6.14617408	     -0.26667521	     57.05144446	     57.05144446	    -18.52523582	    -16.23173238	      0.00000000	      2.78316906	      1.03729829	     -8.75254870
    202.16970050	    -14.81250580	      0.49010696	     -6.51687296	      0.10002075	      1.00153160	      0.30000071	     38.73085235	      5.89615772	     -3.68201165	     22.47218835	     22.47218835	      3.26942278	      1.46630438	      0.00000000	      2.14901849	      4.91210152	     -0.63239489	     62.95438507	     62.95438507	    -17.64189715	    -17.02747294	      0.00000000	      1.96995296	      2.13133313	     -8.51111976
    202.17970050	    -15.09489171	     -0.45099994	     -6.63362918	      0.09663280	      0.99266054	      0.30023608	     39.65761828	      7.09086580	     -3.24069717	     26.29854904	     26.29854904	      2.00614969	     -2.05821224	      0.00000000	      5.26578139	      3.20756165	     -1.09190088	     69.04443634	     69.04443634	    -16.11685160	    -17.70541096	      0.00000000	      1.69901767	      3.30251938	     -8.05701331
    202.18970050	    -15.44415924	     -1.46010942	     -6.82659265	      0.09232914	      0.98330501	      0.30084981	     41.40877554	      8.39899858	     -3.16672424	     32.11459636	     32.11459636	      4.44332198	     -4.34303564	      0.00000000	      8.59423976	      1.29323103	     -1.44057415	     74.96108915	     74.96108915	    -14.79011122	    -18.82542121	      0.00000000	      1.37878094	      4.49778962	     -7.25987031
    202.19970050	    -15.56611546	     -1.72707312	     -6.78468719	      0.08798233	      0.97387506	      0.30071232	     43.13951441	      8.80735394	     -2.80498140	     38.53956205	     38.53956205	      7.34323931	     -6.59907480	      0.00000000	     11.82765432	      0.41563779	     -1.28985441	     80.35316059	     80.35316059	    -13.84508611	    -19.91515411	      0.00000000	      0.92162546	      4.80976065	     -6.57936564
    202.20970050	    -15.43348379	     -2.10991647	     -6.83449274	      0.08380505	      0.96580949	      0.30069616	     43.66534647	      9.39452835	     -2.03557027	     43.24353180	     43.24353180	      9.76880908	     -8.33865035	      0.00000000	     14.82385656	     -0.51678399	     -0.98295293	     85.16997266	     85.16997266	    -12.95753777	    -20.69615672	      0.00000000	      0.15631134	      5.21686635	     -5.46263502
    202.21970050	    -14.86437397	     -2.49568417	     -6.76381500	      0.08012230	      0.95971713	      0.30077373	     42.78110802	      9.84233922	     -1.35731802	     46.51752018	     46.51752018	     12.46249903	     -9.50591001	      0.00000000	     17.38490167	     -1.36479449	     -0.44946013	     89.30942444	     89.30942444	    -12.32460463	    -21.42848404	      0.00000000	     -1.05469183	      5.49588876	     -4.38150920
    202.22970050	    -15.74842231	     -2.93772187	     -6.45629244	      0.07545785	      0.95254120	      0.30040717	     42.95189006	     10.14628624	     -1.37755907	     48.91932308	     48.91932308	     15.73735092	     -8.83006382	      0.00000000	     21.92023222	     -2.25818290	      0.73408236	     93.45020168	     93.45020168	    -11.05394407	    -21.12982961	      0.00000000	     -0.53037081	      6.08003848	     -3.36338064
    202.23970050	    -16.22632689	     -3.44669500	     -5.90885108	      0.07128091	      0.94736664	      0.29977017	     42.21185773	     10.32829887	     -1.73494563	     50.51232965	     50.51232965	     18.47977783	     -8.69842756	      0.00000000	     26.06822339	     -2.96321325	      2.25889335	     96.86935232	     96.86935232	     -9.70235978	    -20.44963800	      0.00000000	     -0.43052478	      6.66948541	     -2.77372657
    202.24970050	    -16.59958913	     -3.89560581	     -5.29363850	      0.06773113	      0.94349645	      0.29877881	     41.09567040	     10.42040249	     -2.06639562	     51.68323261	     51.68323261	     20.76867760	     -8.62026709	      0.00000000	     30.08358435	     -3.35778373	      3.89427274	     99.53646771	     99.53646771	     -8.60392147	    -19.44377409	      0.00000000	     -0.32167718	      7.22539296	     -2.21510733
    202.25970050	    -16.89566797	     -4.03342691	     -4.65565921	      0.06497622	      0.94080720	      0.29733597	     39.59570206	     10.18623671	     -2.16216633	     52.40622824	     52.40622824	     22.81943320	     -8.48536367	      0.00000000	     33.90243832	     -3.14848028	      5.42948498	    101.40409909	    101.40409909	     -7.49321422	    -18.11913683	      0.00000000	     -0.08822975	      7.45666209	     -1.69077731
    202.26970050	    -16.88826009	     -3.85131781	     -4.20277155	      0.06305374	      0.94021129	      0.29624446	     37.26209721	      9.83324201	     -1.80160681	     52.24179783	     52.24179783	     24.37350401	     -8.76258290	      0.00000000	     37.15136468	     -2.58116597	      6.44816410	    102.32330811	    102.32330811	     -6.96813145	    -17.58486495	      0.00000000	     -0.06662063	      7.24425150	     -0.67509652
    202.27970050	    -17.37996603	     -3.64886272	     -3.79740905	      0.06124552	      0.94029985	      0.29557119	     35.19931222	      9.42424143	     -1.56818431	     51.56313082	     51.56313082	     25.99567419	     -7.71946013	      0.00000000	     40.82760741	     -2.03725151	      7.50643236	    102.69683245	    102.69683245	     -5.08389592	    -14.93957159	      0.00000000	      0.61655269	      6.97000599	      0.42181976
    202.28970050	    -17.60449513	     -3.15441828	     -3.64355661	      0.06020893	      0.94256425	      0.29546372	     32.56250991	      8.96814749	     -0.83258130	     50.29907506	     50.29907506	     26.47433010	     -7.55270496	      0.00000000	     43.85074673	     -1.44213251	      7.82384563	    102.10436582	    102.10436582	     -4.25305044	    -13.65439782	      0.00000000	      1.02574188	      6.28098284	      2.05349245
    202.29970050	    -17.87740412	     -2.57206041	     -3.57582157	      0.05985224	      0.94633562	      0.29564526	     29.76949145	      8.43250170	     -0.02786822	     48.53654411	     48.53654411	     26.16883241	     -7.42871812	      0.00000000	     46.59526259	     -0.94050097	      7.77791578	    100.74193314	    100.74193314	     -3.43831887	    -12.70784732	      0.00000000	      1.57996383	      5.47867598	      3.89001055
    202.30970050	    -18.17078967	     -1.92782403	     -3.45947450	      0.06011023	      0.95144365	      0.29570184	     26.86608220	      7.75475100	      0.72681226	     46.34992536	     46.34992536	     25.01774133	     -7.38883935	      0.00000000	     49.05063671	     -0.42116147	      7.49431677	     98.69121313	     98.69121313	     -2.66979276	    -12.10328161	      0.00000000	      2.25577892	      4.62231609	      5.78669054
    202.31970050	    -18.38197036	     -1.20842361	     -3.28915050	      0.06113606	      0.95789544	      0.29572222	     23.75625935	      6.93906028	      1.49707824	     43.76304751	     43.76304751	     22.83022439	     -7.55112552	      0.00000000	     50.99031280	      0.13104942	      6.98318125	     95.87222700	     95.87222700	     -2.08727639	    -12.01599004	      0.00000000	      2.93550616	      3.64515208	      7.40738306
    202.32970050	    -18.76533325	     -0.46884144	     -2.89828994	      0.06272819	      0.96491053	      0.29542725	     20.80836560	      5.90764048	      1.82628488	     40.90245275	     40.90245275	     19.88942725	     -7.61321458	      0.00000000	     52.77528349	      0.80704072	      6.37481564	     92.43863377	     92.43863377	     -1.88737262	    -12.44295748	      0.00000000	      3.88742228	      2.59190595	      8.70951236
